<?xml version="1.0" standalone="no"?>
<!DOCTYPE svg PUBLIC "-//W3C//DTD SVG 20010904//EN"
 "http://www.w3.org/TR/2001/REC-SVG-20010904/DTD/svg10.dtd">
<svg version="1.0" xmlns="http://www.w3.org/2000/svg"
 width="1024.000000pt" height="1024.000000pt" viewBox="0 0 1024.000000 1024.000000"
 preserveAspectRatio="xMidYMid meet">

<g transform="translate(0.000000,1024.000000) scale(0.100000,-0.100000)"
fill="#003932" stroke="none">
<path d="M3119 8081 c-143 -193 -245 -438 -285 -681 -19 -114 -18 -348 2 -474
32 -202 121 -420 241 -589 81 -114 241 -272 343 -339 232 -152 445 -215 801
-238 273 -17 511 -39 612 -56 90 -16 242 -53 282 -69 30 -12 -45 64 -148 151
-105 88 -318 230 -517 345 -214 123 -456 277 -556 355 -109 85 -282 255 -357
350 -181 231 -319 527 -368 794 -16 83 -16 387 -1 464 7 33 11 60 9 62 -1 1
-27 -32 -58 -75z"/>
<path d="M4379 7782 c-149 -154 -218 -314 -218 -502 -1 -195 112 -398 271
-488 85 -49 205 -76 300 -69 132 11 295 65 423 142 l56 34 -55 -63 c-123 -140
-168 -252 -168 -416 0 -84 5 -121 26 -185 38 -119 86 -194 274 -421 171 -208
244 -410 229 -633 -12 -170 -69 -309 -183 -444 -63 -75 -89 -94 -64 -47 10 19
40 183 39 215 0 13 -30 -24 -135 -163 -311 -414 -633 -678 -955 -786 -226 -75
-506 -85 -733 -26 -319 84 -646 350 -829 676 -93 166 -166 372 -184 521 -3 29
-8 52 -10 50 -7 -8 -41 -142 -54 -217 -9 -48 -14 -152 -14 -290 1 -184 4 -232
24 -330 69 -348 210 -620 441 -850 93 -93 135 -127 220 -176 115 -68 227 -113
353 -145 117 -30 395 -38 527 -15 435 76 892 422 1350 1020 41 54 116 151 166
215 50 64 99 129 109 144 31 48 26 23 -14 -74 -209 -503 -413 -836 -681 -1113
-326 -337 -638 -488 -1075 -521 -172 -13 -481 32 -630 91 l-60 24 70 -68 c230
-221 489 -357 774 -406 289 -49 612 23 831 187 212 158 354 337 605 762 222
376 308 505 451 680 91 111 267 286 359 356 68 52 245 164 322 202 l51 26 13
88 c22 143 16 349 -14 463 -54 207 -134 365 -261 512 -97 112 -201 200 -380
320 -247 166 -320 260 -321 408 0 62 5 84 27 125 72 139 256 225 477 225 81 0
206 -21 243 -41 28 -15 32 -6 14 30 -33 63 -118 151 -198 205 -46 31 -110 77
-143 103 -77 59 -225 130 -312 148 -96 21 -269 18 -489 -6 -362 -40 -520 -17
-668 96 -54 41 -58 31 -16 -52 78 -156 225 -249 420 -268 l75 -8 -38 -13 c-21
-7 -76 -19 -123 -25 -241 -34 -440 83 -524 308 -53 142 -37 329 42 486 11 22
18 41 16 43 -2 2 -25 -18 -49 -44z m1261 -717 c35 -4 80 -13 100 -21 42 -18
150 -86 150 -95 0 -9 -124 0 -183 13 -28 6 -71 28 -106 53 -69 51 -83 68 -49
61 12 -3 52 -8 88 -11z"/>
<path d="M2548 6874 c-3 -5 -19 -52 -36 -104 -136 -420 -109 -871 71 -1191 50
-89 160 -223 226 -276 118 -93 294 -159 457 -170 177 -12 363 27 642 133 348
132 676 234 756 234 14 0 28 5 31 11 5 7 -129 9 -442 7 -432 -2 -452 -2 -550
20 -270 59 -486 174 -667 356 -231 232 -393 545 -465 902 -10 48 -20 83 -23
78z"/>
<path d="M6456 6227 c97 -86 205 -204 271 -295 71 -99 178 -302 217 -410 146
-410 124 -877 -62 -1282 -100 -218 -280 -457 -465 -615 -48 -41 -85 -75 -82
-75 26 0 204 58 287 94 541 232 846 614 898 1123 39 384 -133 812 -454 1128
-178 175 -381 298 -601 364 l-68 20 59 -52z"/>
<path d="M5079 5340 c-124 -23 -332 -89 -474 -150 -61 -26 -217 -105 -345
-175 -470 -257 -628 -316 -920 -340 -125 -10 -345 22 -423 62 -16 8 -31 12
-33 10 -8 -8 151 -181 220 -239 279 -234 659 -302 999 -177 189 68 339 172
667 459 263 229 340 288 460 349 l95 48 3 86 3 87 -78 -1 c-43 0 -121 -9 -174
-19z"/>
<path d="M7676 4206 c-98 -194 -226 -355 -398 -503 -240 -207 -517 -340 -903
-433 -187 -46 -513 -111 -670 -135 -60 -9 -130 -19 -155 -23 l-44 -7 64 -42
c225 -145 497 -221 760 -210 367 16 674 150 930 407 58 58 130 141 162 185
115 164 214 384 263 588 22 91 48 258 41 264 -1 2 -24 -40 -50 -91z"/>
<path d="M6405 4223 c-154 -102 -306 -246 -418 -396 -48 -65 -257 -391 -257
-402 0 -8 154 77 230 128 148 98 324 301 434 500 31 57 96 201 96 213 0 11
-22 0 -85 -43z"/>
<path d="M5367 2761 c-74 -126 -211 -275 -326 -357 -39 -27 -70 -52 -71 -56 0
-10 81 -45 184 -79 231 -76 526 -94 767 -46 239 48 432 128 634 265 122 82
227 169 190 157 -69 -23 -253 -66 -325 -76 -123 -17 -396 -15 -507 5 -106 18
-265 67 -338 103 -27 14 -80 45 -116 69 -37 24 -68 44 -71 44 -2 0 -12 -13
-21 -29z"/>
</g>
</svg>
